<?xml version="1.0" standalone="yes"?>
<svg xmlns="http://www.w3.org/2000/svg" width="379" height="421">
  <path style="fill:#ffd160;stroke:none" d="M184 0L184 1L190 1L184 0z"/>
  <path style="fill:#feba0b;stroke:none" d="M14 179L14 180C-4.77557 196.721 -0.172333 226.573 14.4645 243.985C27.7978 259.847 48.6493 272 65 284.65C83.3682 298.862 101.68 313.151 120 327.424C137.299 340.903 152.863 353.438 175 357.385C213.179 364.193 239.373 344.8 268 322.65C301.432 296.783 333.776 267.3 369 244C370.138 237.676 375.799 232.272 377.895 226C380.186 219.144 379.286 210.158 378.961 203C378.603 195.134 368.482 185.058 369.646 178.576C370.473 173.969 375.202 169.477 376.931 165C380.41 155.996 380.676 141.142 377.452 132C368.989 107.998 339.181 92.1969 320 77.3495C271.616 39.8981 214.482 -25.2253 148 11.3117C121.228 26.0253 97.0883 49.8078 73 68.5756C53.1802 84.0178 28.3903 98.552 12.3287 118C-1.34808 134.56 -2.98614 163.87 14 179z"/>
  <path style="fill:#ffd160;stroke:none" d="M192 0L192 1L198 1L192 0z"/>
  <path style="fill:#ffd160;stroke:none" d="M176 1L177 2L176 1M205 1L206 2L205 1M170.667 2.33334L171.333 2.66666L170.667 2.33334M210 2L211 3L210 2M167 3L168 4L167 3M214 3L215 4L214 3M163 4L164 5L163 4M218 4L219 5L218 4M160 5L161 6L160 5M221 5L222 6L221 5M223 6L224 7L223 6M155 7L156 8L155 7M226 7L227 8L226 7M153 8L154 9L153 8M228 8L229 9L228 8M151 9L152 10L151 9M230 9L231 10L230 9M149 10L150 11L149 10M232 10L233 11L232 10M147 11L148 12L147 11M235 12L236 13L235 12M144 13L145 14L144 13M237 13L238 14L237 13M141 15L142 16L141 15M240 15L241 16L240 15M241 16L242 17L241 16M138 17L139 18L138 17M137 18L138 19L137 18M244 18L245 19L244 18M136 19L137 20L136 19M245 19L246 20L245 19M133 21L134 22L133 21M132 22L133 23L132 22M249 22L250 23L249 22M250 23L251 24L250 23M129 24L130 25L129 24M128 25L129 26L128 25M253 25L254 26L253 25M127 26L128 27L127 26M254 26L255 27L254 26M124 28L125 29L124 28M123 29L124 30L123 29M258 29L259 30L258 29M259 30L260 31L259 30M120 31L121 32L120 31M119 32L120 33L119 32M262 32L263 33L262 32M118 33L119 34L118 33M263 33L264 34L263 33M115 35L116 36L115 35M114 36L115 37L114 36M267 36L268 37L267 36M268 37L269 38L268 37M110 39L111 40L110 39M271 39L272 40L271 39M109 40L110 41L109 40M272 40L273 41L272 40M106 42L107 43L106 42M105 43L106 44L105 43M276 43L277 44L276 43M175.667 44.3333L176.333 44.6667L175.667 44.3333M277 44L278 45L277 44M172 45L173 46L172 45z"/>
  <path style="fill:#fffdf7;stroke:none" d="M159 80L124 80C119.379 80 113.013 79.0627 109.318 82.5139C103.881 87.5911 106.989 105.027 107 112C107.038 135.616 109 159.367 109 183C109 190.635 106.295 205.111 111.14 211.566C118.523 221.402 131.88 197.456 140 199.967C144.941 201.494 149.97 207.05 154 210.21L183 232.79C187.495 236.315 193.181 242.514 199 243.526C206.976 244.913 218.174 232.158 224 227.65C246.371 210.342 268.688 192.96 291 175.576C296.268 171.471 314.979 161.453 314.454 153.985C314.042 148.131 305.112 143.434 301 140.21C287.144 129.345 272.758 114.85 257 107L257 105C260.296 103.358 263.101 101.274 266 99C274.87 92.0431 281.6 82.2077 265 82.0038C252.706 81.8529 234.072 85.549 223 79.3511C211.634 72.9886 201.251 62.8286 191 54.7901C186.897 51.5729 181.496 45.7061 176 45.3364C168.456 44.829 158.527 55.9378 153.015 60.3495C150.63 62.2588 147.331 64.5222 147.662 68.0108C148.155 73.2078 155.441 76.9205 159 80z"/>
  <path style="fill:#ffd160;stroke:none" d="M178 45L179 46L178 45M101 46L102 47L101 46M180 46L181 47L180 46M280 46L281 47L280 46M100 47L101 48L100 47M169 47L170 48L169 47M181 47L182 48L181 47M281 47L282 48L281 47M168 48L169 49L168 48M182 48L183 49L182 48M97 49L98 50L97 49M96 50L97 51L96 50M165 50L166 51L165 50M185 50L186 51L185 50M285 50L286 51L285 50M164 51L165 52L164 51M186 51L187 52L186 51M286 51L287 52L286 51M163 52L164 53L163 52M92 53L93 54L92 53M189 53L190 54L189 53M289 53L290 54L289 53M91 54L92 55L91 54M160 54L161 55L160 54M175 54L176 55L175 54M190 54L191 55L190 54M290 54L291 55L290 54M159 55L160 56L159 55z"/>
  <path style="fill:#feba0b;stroke:none" d="M159 67L159 68C162.939 71.6171 175.515 78.156 175.515 83.9954C175.515 90.2049 165.897 89 162 89L116 89L118 202C123.797 198.665 131.231 189.141 138 188.711C143.469 188.365 149.99 195.794 154 198.881C164.372 206.868 174.708 214.911 185 223C188.888 226.056 194.073 231.818 199 232.915C206.1 234.496 219.657 219.739 225 215.576C243.322 201.3 261.723 187.122 280 172.79C287.151 167.183 298.851 161.171 303 153C288.094 141.952 273.7 130.201 259 118.881C255.53 116.209 245.626 111.002 245.752 106C245.889 100.542 256.903 94.5602 261 92L222 89.2724L189 64.5756L175 55.8673L159 67z"/>
  <path style="fill:#ffd160;stroke:none" d="M177 55L178 56L177 55M191 55L192 56L191 55M88 56L89 57L88 56M172 56L173 57L172 56M178 56L179 57L178 56M87 57L88 58L87 57M156 57L157 58L156 57M171 57L172 58L171 57M179 57L180 58L179 57M194 57L195 58L194 57M294 57L295 58L294 57M155 58L156 59L155 58M195 58L196 59L195 58M295 58L296 59L295 58M154 59L155 60L154 59M168 59L169 60L168 59M182 59L183 60L182 59M83 60L84 61L83 60M167 60L168 61L167 60M183 60L184 61L183 60M198 60L199 61L198 60M298 60L299 61L298 60M82 61L83 62L82 61M151 61L152 62L151 61M166 61L167 62L166 61M199 61L200 62L199 61M299 61L300 62L299 61M150 62L151 63L150 62M186 62L187 63L186 62M200 62L201 63L200 62M79 63L80 64L79 63M163 63L164 64L163 63M187 63L188 64L187 63M78 64L79 65L78 64M162 64L163 65L162 64M188 64L189 65L188 64M203 64L204 65L203 64M303 64L304 65L303 64M147 65L148 66L147 65M204 65L205 66L204 65M304 65L305 66L304 65M159 66L160 67L159 66M191 66L192 67L191 66M74 67L75 68L74 67M158 67L159 68L158 67M192 67L193 68L192 67M207 67L208 68L207 67M307 67L308 68L307 67M73 68L74 69L73 68M159 68L160 69L159 68M208 68L209 69L208 68M308 68L309 69L308 68M147 69L148 70L147 69M160 69L161 70L160 69M195 69L196 70L195 69M209 69L210 70L209 69M70 70L71 71L70 70M161 70L162 71L161 70M196 70L197 71L196 70M69 71L70 72L69 71M148 71L149 72L148 71M197 71L198 72L197 71M212 71L213 72L212 71M312 71L313 72L312 71M149 72L150 73L149 72M164 72L165 73L164 72M213 72L214 73L213 72M313 72L314 73L313 72M165 73L166 74L165 73M200 73L201 74L200 73M65 74L66 75L65 74M152 74L153 75L152 74M201 74L202 75L201 74M216 74L217 75L216 74M316 74L317 75L316 74M64 75L65 76L64 75M153 75L154 76L153 75M168 75L169 76L168 75M217 75L218 76L217 75M317 75L318 76L317 75M169 76L170 77L169 76M204 76L205 77L204 76M218 76L219 77L218 76M318 76L319 77L318 76M61 77L62 78L61 77M156 77L157 78L156 77M170 77L171 78L170 77M205 77L206 78L205 77M60 78L61 79L60 78M154 79L154 80L159 80L154 79M206 78L207 79L206 78M221 78L222 79L221 78M321 78L322 79L321 78M173 79L174 80L173 79M222 79L223 80L222 79M322 79L323 80L322 79M111.667 80.3333L112.333 80.6667L111.667 80.3333M174 80L175 81L174 80M209 80L210 81L209 80M56 81L57 82L56 81M175 81L176 82L175 81M210 81L211 82L210 81M229 81L229 82L252 82L229 81M325 81L326 82L325 81M55 82L56 83L55 82M108 82L109 83L108 82M271.667 82.3333L272.333 82.6667L271.667 82.3333M326 82L327 83L326 82M176.333 83.6667L176.667 84.3333L176.333 83.6667M213 83L214 84L213 83M274 83L275 84L274 83M327 83L328 84L327 83M52 84L53 85L52 84M214 84L215 85L214 84M51 85L52 86L51 85M215 85L216 86L215 85M276 85L277 86L276 85M330 85L331 86L330 85M106 86L106 97L107 97L106 86M175 86L176 87L175 86M331 86L332 87L331 86M174 87L175 88L174 87M218 87L219 88L218 87M47 88L48 89L47 88M144 88L144 89L174 89L144 88M219 88L220 89L219 88M334 88L335 89L334 88M46 89L47 90L46 89M115 89L115 99L116 99L115 89M221 89L222 90L221 89M276 89L277 90L276 89M335 89L336 90L335 89M231 90L231 91L255 91L231 90M336 90L337 91L336 90M43 91L44 92L43 91M275 91L276 92L275 91M42 92L43 93L42 92M259 92L260 93L259 92M339 92L340 93L339 92M258 93L259 94L258 93M340 93L341 94L340 93M271 94L272 95L271 94M38 95L39 96L38 95M255 95L256 96L255 95M270 95L271 96L270 95M343 95L344 96L343 95M37 96L38 97L37 96M254 96L255 97L254 96M344 96L345 97L344 96M253 97L254 98L253 97M267 97L268 98L267 97M345 97L346 98L345 97M34 98L35 99L34 98M266 98L267 99L266 98M33 99L34 100L33 99M250 99L251 100L250 99M265 99L266 100L265 99M348 99L349 100L348 99M249 100L250 101L249 100M349 100L350 101L349 100M262 101L263 102L262 101M29 102L30 103L29 102M246 102L247 103L246 102M261 102L262 103L261 102M352 102L353 103L352 102M28 103L29 104L28 103M353 103L354 104L353 103M245 104L246 105L245 104M258 104L259 105L258 104M354 104L355 105L354 104M25 105L26 106L25 105M257.333 105.667L257.667 106.333L257.333 105.667M24 106L25 107L24 106M357 106L358 107L357 106M258 107L259 108L258 107M358 107L359 108L358 107M245 108L246 109L245 108M20 109L21 110L20 109M246 109L247 110L246 109M261 109L262 110L261 109M19 110L20 111L19 110M262 110L263 111L262 110M362 110L363 111L362 110M18 111L19 112L18 111M249 111L250 112L249 111M363 111L364 112L363 111M17 112L18 113L17 112M223 112L223 113L234 113L223 112M250 112L251 113L250 112M265 112L266 113L265 112M364 112L365 113L364 112M16 113L17 114L16 113M215 113L215 114L219 114L215 113z"/>
  <path style="fill:#fffdf7;stroke:none" d="M219 113.428C196.025 116.718 173.268 126.433 159.57 146C154.051 153.885 150.938 162.486 149.846 172C149.469 175.284 148.529 181.902 153.935 181.454C158.65 181.063 157.876 174.241 158.465 171C160.341 160.668 165.747 151.463 173.039 144.015C183.266 133.569 196.864 126.895 211 123.651C216.468 122.396 230.588 123.275 234.392 119.397C241.722 111.925 221.848 113.02 219 113.428z"/>
  <path style="fill:#ffd160;stroke:none" d="M266 113L267 114L266 113M365 113L366 114L365 113M15 114L16 115L15 114M210 114L210 115L213 115L210 114M253 114L254 115L253 114M267 114L268 115L267 114M366 114L367 115L366 114M14 115L15 116L14 115M206.667 115.333L207.333 115.667L206.667 115.333M236 115L236 118L237 118L236 115M254 115L255 116L254 115M367 115L368 116L367 115M13 116L14 117L13 116M202.667 116.333L203.333 116.667L202.667 116.333M255 116L256 117L255 116M270 116L271 117L270 116M199.667 117.333L200.333 117.667L199.667 117.333M271 117L272 118L271 117M196.667 118.333L197.333 118.667L196.667 118.333M258 118L259 119L258 118M194 119L195 120L194 119M235 119L236 120L235 119M259 119L260 120L259 119M274 119L275 120L274 119M370 119L371 120L370 119M10 120L11 121L10 120M107 120L107 142L108 142L107 120M191.667 120.333L192.333 120.667L191.667 120.333M234 120L235 121L234 120M275 120L276 121L275 120M371 120L372 121L371 120M189 121L190 122L189 121M223 121L223 122L232 122L223 121M262 121L263 122L262 121M276 121L277 122L276 121M116 122L116 145L117 145L116 122M187 122L188 123L187 122M216 122L216 123L219 123L216 122M263 122L264 123L263 122M372 122L373 123L372 122M8 123L9 124L8 123M185 123L186 124L185 123M211.667 123.333L212.333 123.667L211.667 123.333M264 123L265 124L264 123M279 123L280 124L279 123M207.667 124.333L208.333 124.667L207.667 124.333M280 124L281 125L280 124M7 125L8 126L7 125M182 125L183 126L182 125M203.667 125.333L204.333 125.667L203.667 125.333M267 125L268 126L267 125M374 125L375 126L374 125M180 126L181 127L180 126M201 126L202 127L201 126M268 126L269 127L268 126M283 126L284 127L283 126M198 127L199 128L198 127M284 127L285 128L284 127M375 127L376 128L375 127M177 128L178 129L177 128M195.667 128.333L196.333 128.667L195.667 128.333M271 128L272 129L271 128M285 128L286 129L285 128M5 129L6 130L5 129M176 129L177 130L176 129M193 129L194 130L193 129M272 129L273 130L272 129M376 129L377 130L376 129M174 130L175 131L174 130M191 130L192 131L191 130M273 130L274 131L273 130M288 130L289 131L288 130M4 131L5 132L4 131M173 131L174 132L173 131M189 131L190 132L189 131M229 131L229 132L239 132L229 131M289 131L290 132L289 131M377 131L378 132L377 131M172 132L173 133L172 132M222 132L222 133L225 133L222 132z"/>
  <path style="fill:#fffdf7;stroke:none" d="M225 132.439C207.713 135.139 189.957 143.711 180.468 159C178.317 162.464 167.982 185.364 178 185.364C181.343 185.364 181.915 181.494 182.42 178.999C183.968 171.34 186.725 164.821 192.093 159.001C200.005 150.423 209.693 144.892 221 142.131C225.756 140.97 235.676 141.788 239.396 138.821C247.84 132.086 227.591 132.034 225 132.439z"/>
  <path style="fill:#ffd160;stroke:none" d="M240 132L241 133L240 132M276 132L277 133L276 132M186 133L187 134L186 133M218.667 133.333L219.333 133.667L218.667 133.333M277 133L278 134L277 133M292 133L293 134L292 133M3 134L4 135L3 134M184 134L185 135L184 134M214.667 134.333L215.333 134.667L214.667 134.333M241 134L241 138L242 138L241 134M293 134L294 135L293 134M378.333 134.667L378.667 135.333L378.333 134.667M168 135L169 136L168 135M183 135L184 136L183 135M211.667 135.333L212.333 135.667L211.667 135.333M280 135L281 136L280 135M294 135L295 136L294 135M167 136L168 137L167 136M181 136L182 137L181 136M209 136L210 137L209 136M281 136L282 137L281 136M2.33333 137.667L2.66667 138.333L2.33333 137.667M166 137L167 138L166 137M180 137L181 138L180 137M206 137L207 138L206 137M282 137L283 138L282 137M297 137L298 138L297 137M165 138L166 139L165 138M204 138L205 139L204 138M298 138L299 139L298 138M177 139L178 140L177 139M202 139L203 140L202 139M239 139L240 140L239 139M285 139L286 140L285 139M176 140L177 141L176 140M200 140L201 141L200 140M229 140L229 141L237 141L229 140M286 140L287 141L286 140M301 140L302 141L301 140M175 141L176 142L175 141M223.667 141.333L224.333 141.667L223.667 141.333M302 141L303 142L302 141M1 142L1 147L2 147L1 142M162 142L163 143L162 142M174 142L175 143L174 142M197 142L198 143L197 142M219.667 142.333L220.333 142.667L219.667 142.333M289 142L290 143L289 142M303 142L304 143L303 142M161 143L162 144L161 143M173 143L174 144L173 143M195 143L196 144L195 143M215.667 143.333L216.333 143.667L215.667 143.333M290 143L291 144L290 143M160 144L161 145L160 144M172 144L173 145L172 144M194 144L195 145L194 144M213 144L214 145L213 144M291 144L292 145L291 144M306 144L307 145L306 144M171 145L172 146L171 145M210 145L211 146L210 145M307 145L308 146L307 145M170 146L171 147L170 146M191 146L192 147L191 146M208 146L209 147L208 146M294 146L295 147L294 146M158 147L159 148L158 147M169 147L170 148L169 147M190 147L191 148L190 147M206 147L207 148L206 147M295 147L296 148L295 147M310 147L311 148L310 147M1 148L1 153L2 153L1 148M189 148L190 149L189 148M204 148L205 149L204 148M311 148L312 149L311 148M157 149L158 150L157 149M188 149L189 150L188 149M202 149L203 150L202 149M233 149L233 150L239 150L233 149z"/>
  <path style="fill:#fffdf7;stroke:none" d="M238.985 149.613C225.295 149.518 210.851 155.704 202.789 167C200.419 170.321 192.744 186.592 201.09 187.534C206.14 188.104 208.949 173.609 212.185 170.015C217.426 164.194 224.464 160.703 232 158.899C235.239 158.124 239.87 158.724 242.678 156.821C247.145 153.794 242.782 149.64 238.985 149.613z"/>
  <path style="fill:#ffd160;stroke:none" d="M241.667 149.333L242.333 149.667L241.667 149.333M298 149L299 150L298 149M312 149L313 150L312 149M156 150L157 151L156 150M167 150L168 151L167 150M187 150L188 151L187 150M201 150L202 151L201 150M228.667 150.333L229.333 150.667L228.667 150.333M299 150L300 151L299 150M313 150L314 151L313 150M166 151L167 152L166 151M186 151L187 152L186 151M224.667 151.333L225.333 151.667L224.667 151.333M244 151L245 152L244 151M300 151L301 152L300 151M314 151L315 152L314 151M155 152L156 153L155 152M185 152L186 153L185 152M198 152L199 153L198 152M222 152L223 153L222 152M165 153L166 154L165 153M184 153L185 154L184 153M197 153L198 154L197 153M219 153L220 154L219 153M245 153L246 154L245 153M303.333 153.667L303.667 154.333L303.333 153.667M154 154L155 155L154 154M164 154L165 155L164 154M183 154L184 155L183 154M217 154L218 155L217 154M215 155L216 156L215 155M302 155L303 156L302 155M153 156L154 157L153 156M163 156L164 157L163 156M214 156L215 157L214 156M314 156L315 157L314 156M2.33333 157.667L2.66667 158.333L2.33333 157.667M181 157L182 158L181 157M212 157L213 158L212 157M242 157L243 158L242 157M299 157L300 158L299 157M162 158L163 159L162 158M180 158L181 159L180 158M211 158L212 159L211 158M233 158L233 159L237 159L233 158M298 158L299 159L298 158M152 159L153 160L152 159M209 159L210 160L209 159M229.667 159.333L230.333 159.667L229.667 159.333M311 159L312 160L311 159M161 160L162 161L161 160M179 160L180 161L179 160M190 160L191 161L190 160M208 160L209 161L208 160M226 160L227 161L226 160M295 160L296 161L295 160M310 160L311 161L310 160M378 160L379 161L378 160M3 161L4 162L3 161M189 161L190 162L189 161M207 161L208 162L207 161M223.667 161.333L224.333 161.667L223.667 161.333M294 161L295 162L294 161z"/>
  <path style="fill:#ffd160;stroke:none" d="M151 162L152 163L151 162M178 162L179 163L178 162M206 162L207 163L206 162M221 162L222 163L221 162M307 162L308 163L307 162M160 163L161 164L160 163M205 163L206 164L205 163M291 163L292 164L291 163M306 163L307 164L306 163M377 163L378 164L377 163M4 164L5 165L4 164M177 164L178 165L177 164M187 164L188 165L187 164M204 164L205 165L204 164M218 164L219 165L218 164M290 164L291 165L290 164M305 164L306 165L305 164M150.333 165.667L150.667 166.333L150.333 165.667M216 165L217 166L216 165M289 165L290 166L289 165M5 166L6 167L5 166M108 166L108 188L109 188L108 166M159.333 166.667L159.667 167.333L159.333 166.667M176 166L177 167L176 166M186 166L187 167L186 166M215 166L216 167L215 166M302 166L303 167L302 166M376 166L377 167L376 166M202 167L203 168L202 167M214 167L215 168L214 167M286 167L287 168L286 167M301 167L302 168L301 167M6 168L7 169L6 168M117 168L117 190L118 190L117 168M185 168L186 169L185 168M201 168L202 169L201 168M285 168L286 169L285 168M375 168L376 169L375 168M175 169L176 170L175 169M298 169L299 170L298 169M7 170L8 171L7 170M149 170L149 175L150 175L149 170M158 170L158 174L159 174L158 170M184 170L185 171L184 170M200 170L201 171L200 170M211 170L212 171L211 170M282 170L283 171L282 170M297 170L298 171L297 170M374 170L375 171L374 170M210 171L211 172L210 171M281 171L282 172L281 171M373 171L374 172L373 171M8 172L9 173L8 172M174.333 172.667L174.667 173.333L174.333 172.667M199 172L200 173L199 172M280 172L281 173L280 172M294 172L295 173L294 172M183.333 173.667L183.667 174.333L183.333 173.667M293 173L294 174L293 173M372 173L373 174L372 173M208 174L209 175L208 174M277 174L278 175L277 174M292 174L293 175L292 174M10 175L11 176L10 175M198 175L199 176L198 175M276 175L277 176L276 175M11 176L12 177L11 176M207.333 176.667L207.667 177.333L207.333 176.667M289 176L290 177L289 176M370 176L371 177L370 176M273 177L274 178L273 177M288 177L289 178L288 177M369 177L370 178L369 177M173 178L173 183L174 183L173 178M182 178L182 183L183 183L182 178M197 178L197 182L198 182L197 178M272 178L273 179L272 178M13 179L14 180L13 179M149 179L150 180L149 179M157 179L158 180L157 179M206.333 179.667L206.667 180.333L206.333 179.667M271 179L272 180L271 179M285 179L286 180L285 179M368 179L369 180L368 179M284 180L285 181L284 180z"/>
  <path style="fill:#f97501;stroke:none" d="M14 181C10.6055 190.149 26.8113 198.754 33 203.576C56.9836 222.262 81.2403 240.63 105 259.6C119.169 270.913 133.72 284.57 150 292.73C210.899 323.254 259.252 273.289 304 238.424C316.656 228.564 329.289 218.669 342 208.881C350.698 202.183 359.769 196.516 364 186C351.366 190.86 339.625 203.458 329 211.79C308.734 227.682 288.266 243.318 268 259.21C254.147 270.073 240.497 282.864 224 289.547C179.369 307.627 144.911 283.893 111 257.003C79.0505 231.669 47.2876 204.426 14 181z"/>
  <path style="fill:#ffd160;stroke:none" d="M151 181L152 182L151 181M268 181L269 182L268 181M283 181L284 182L283 181M11 182L12 183L11 182M153 182L154 183L153 182M267 182L268 183L267 182M370 182L371 183L370 182M10 183L11 184L10 183M280 183L281 184L280 183M174 184L175 185L174 184M181 184L182 185L181 184M264 184L265 185L264 184M279 184L280 185L279 184M175 185L176 186L175 185M180 185L181 186L180 185M197 185L198 186L197 185M263 185L264 186L263 185M372 185L373 186L372 185M177 186L178 187L177 186M205 186L206 187L205 186M262 186L263 187L262 186M276 186L277 187L276 186M198 187L199 188L198 187M204 187L205 188L204 187M275 187L276 188L275 187M7 188L8 189L7 188M136 188L137 189L136 188M140 188L141 189L140 188M200 188L200 189L203 189L200 188M259 188L260 189L259 188M274 188L275 189L274 188M374 188L375 189L374 188M134 189L135 190L134 189M258 189L259 190L258 189M133 190L134 191L133 190M143 190L144 191L143 190M271 190L272 191L271 190M375 190L376 191L375 190M132 191L133 192L132 191M144 191L145 192L144 191M255 191L256 192L255 191M270 191L271 192L270 191M5 192L6 193L5 192M254 192L255 193L254 192M376 192L377 193L376 192M129 193L130 194L129 193M147 193L148 194L147 193M253 193L254 194L253 193M267 193L268 194L267 193M4 194L5 195L4 194M128 194L129 195L128 194M148 194L149 195L148 194M266 194L267 195L266 194M149 195L150 196L149 195M250 195L251 196L250 195M265 195L266 196L265 195M125 196L126 197L125 196M249 196L250 197L249 196M3 197L4 198L3 197M124 197L125 198L124 197M152 197L153 198L152 197M262 197L263 198L262 197M123 198L124 199L123 198M137 198L138 199L137 198M153 198L154 199L153 198M246 198L247 199L246 198M261 198L262 199L261 198M378 198L379 199L378 198M136 199L137 200L136 199M140 199L141 200L140 199M245 199L246 200L245 199M120 200L121 201L120 200M135 200L136 201L135 200M141 200L142 201L141 200M156 200L157 201L156 200M244 200L245 201L244 200M258 200L259 201L258 200M2 201L3 202L2 201M119 201L120 202L119 201M157 201L158 202L157 201M257 201L258 202L257 201M132 202L133 203L132 202M144 202L145 203L144 202M158 202L159 203L158 202M241 202L242 203L241 202M256 202L257 203L256 202M131 203L132 204L131 203M145 203L146 204L145 203M240 203L241 204L240 203M146 204L147 205L146 204M161 204L162 205L161 204M253 204L254 205L253 204M128 205L129 206L128 205M162 205L163 206L162 205M237 205L238 206L237 205M252 205L253 206L252 205M1 206L1 210L2 210L1 206M127 206L128 207L127 206M149 206L150 207L149 206M236 206L237 207L236 206M109 207L109 210L110 210L109 207M126 207L127 208L126 207M150 207L151 208L150 207M165 207L166 208L165 207M235 207L236 208L235 207M249 207L250 208L249 207M166 208L167 209L166 208M248 208L249 209L248 208M123 209L124 210L123 209M153 209L154 210L153 209M167 209L168 210L167 209M232 209L233 210L232 209M247 209L248 210L247 209M122 210L123 211L122 210M154 210L155 211L154 210M231 210L232 211L231 210M110 211L111 212L110 211M155 211L156 212L155 211M170 211L171 212L170 211M244 211L245 212L244 211M1 212L1 217L2 217L1 212M119 212L120 213L119 212M171 212L172 213L171 212M228 212L229 213L228 212M243 212L244 213L243 212M112 213L113 214L112 213M118 213L119 214L118 213M158 213L159 214L158 213M227 213L228 214L227 213M114.667 214.333L115.333 214.667L114.667 214.333M159 214L160 215L159 214M174 214L175 215L174 214M226 214L227 215L226 214M240 214L241 215L240 214M175 215L176 216L175 215M239 215L240 216L239 215M162 216L163 217L162 216M176 216L177 217L176 216M223 216L224 217L223 216M238 216L239 217L238 216M163 217L164 218L163 217M222 217L223 218L222 217M164 218L165 219L164 218M179 218L180 219L179 218M235 218L236 219L235 218M180 219L181 220L180 219M219 219L220 220L219 219M234 219L235 220L234 219M167 220L168 221L167 220M218 220L219 221L218 220M2 221L3 222L2 221M168 221L169 222L168 221M183 221L184 222L183 221M217 221L218 222L217 221M231 221L232 222L231 221M184 222L185 223L184 222M230 222L231 223L230 222M171 223L172 224L171 223M185 223L186 224L185 223M214 223L215 224L214 223M229 223L230 224L229 223M3 224L4 225L3 224M172 224L173 225L172 224M213 224L214 225L213 224M378 224L379 225L378 224M173 225L174 226L173 225M188 225L189 226L188 225M226 225L227 226L226 225z"/>
  <path style="fill:#ffd160;stroke:none" d="M189 226L190 227L189 226M210 226L211 227L210 226M225 226L226 227L225 226M4 227L5 228L4 227M176 227L177 228L176 227M209 227L210 228L209 227M377 227L378 228L377 227M177 228L178 229L177 228M192 228L193 229L192 228M208 228L209 229L208 228M222 228L223 229L222 228M193 229L194 230L193 229M221 229L222 230L221 229M376 229L377 230L376 229M180 230L181 231L180 230M194 230L195 231L194 230M205 230L206 231L205 230M220 230L221 231L220 230M181 231L182 232L181 231M204 231L205 232L204 231M375 231L376 232L375 231M182 232L183 233L182 232M197 232L198 233L197 232M217 232L218 233L217 232M198 233L199 234L198 233M201 233L202 234L201 233M216 233L217 234L216 233M374 233L375 234L374 233M185 234L186 235L185 234M200 234L201 235L200 234M8 235L9 236L8 235M186 235L187 236L186 235M213 235L214 236L213 235M373 235L374 236L373 235M212 236L213 237L212 236M9 237L10 238L9 237M189 237L190 238L189 237M211 237L212 238L211 237M10 238L11 239L10 238M190 238L191 239L190 238M371 238L372 239L371 238M191 239L192 240L191 239M208 239L209 240L208 239M370 239L371 240L370 239M207 240L208 241L207 240M12 241L13 242L12 241M194 241L195 242L194 241M13 242L14 243L13 242M195 242L196 243L195 242M204 242L205 243L204 242M368 242L369 243L368 242z"/>
  <path style="fill:#f97501;stroke:none" d="M13 243C9.20317 249.158 5.07907 254.904 3.15895 262C-6.08897 296.179 23.6281 315.567 47 333.65C68.374 350.188 89.6818 366.815 111 383.424C130.791 398.844 150.048 417.338 176 420.711C230.901 427.845 270.234 384.251 310 353C334.229 333.959 378.998 311.84 379 277C379.001 267.75 379.534 251.222 369.79 245.751C365.76 243.488 360.78 249.479 358 251.739C348.499 259.466 338.686 266.855 329 274.35C307.614 290.897 286.279 307.524 265 324.21C246.883 338.416 230.23 352.742 207 357.195C168.549 364.565 141.572 343.614 113 321.21C79.9299 295.278 47.4455 266.979 13 243z"/>
  <path style="fill:#ffd160;stroke:none" d="M197 243L198 244L197 243M203 243L204 244L203 243z"/>
  <path style="fill:#feba0b;stroke:none" d="M12 244L13 245L12 244z"/>
  <path style="fill:#ffd160;stroke:none" d="M200 244L201 245L200 244M369 244L370 245L369 244M11 245L12 246L11 245z"/>
  <path style="fill:#feba0b;stroke:none" d="M9 248L10 249L9 248z"/>
  <path style="fill:#ffd160;stroke:none" d="M372 248L373 249L372 248z"/>
  <path style="fill:#feba0b;stroke:none" d="M373 250L374 251L373 250z"/>
  <path style="fill:#ffd160;stroke:none" d="M7 251L8 252L7 251z"/>
  <path style="fill:#feba0b;stroke:none" d="M6 253L7 254L6 253z"/>
  <path style="fill:#ffd160;stroke:none" d="M5 255L6 256L5 255z"/>
  <path style="fill:#feba0b;stroke:none" d="M377 258L378 259L377 258z"/>
  <path style="fill:#ffd160;stroke:none" d="M3 260L4 261L3 260z"/>
  <path style="fill:#feba0b;stroke:none" d="M378 261L379 262L378 261M2 264L3 265L2 264z"/>
  <path style="fill:#ffd160;stroke:none" d="M1.33333 269.667L1.66667 270.333L1.33333 269.667z"/>
  <path style="fill:#feba0b;stroke:none" d="M1.33333 271.667L1.66667 272.333L1.33333 271.667M1.33333 276.667L1.66667 277.333L1.33333 276.667z"/>
  <path style="fill:#ffd160;stroke:none" d="M1.33333 278.667L1.66667 279.333L1.33333 278.667z"/>
  <path style="fill:#feba0b;stroke:none" d="M2 284L3 285L2 284z"/>
  <path style="fill:#ffd160;stroke:none" d="M378 287L379 288L378 287z"/>
  <path style="fill:#feba0b;stroke:none" d="M377 290L378 291L377 290M376 292L377 293L376 292z"/>
  <path style="fill:#ffd160;stroke:none" d="M5 293L6 294L5 293z"/>
  <path style="fill:#feba0b;stroke:none" d="M6 295L7 296L6 295M373 298L374 299L373 298M9 300L10 301L9 300z"/>
  <path style="fill:#ffd160;stroke:none" d="M372 300L373 301L372 300z"/>
  <path style="fill:#feba0b;stroke:none" d="M371 301L372 302L371 301M12 304L13 305L12 304z"/>
  <path style="fill:#ffd160;stroke:none" d="M369 304L370 305L369 304z"/>
  <path style="fill:#feba0b;stroke:none" d="M368 305L369 306L368 305M367 306L368 307L367 306M366 307L367 308L366 307M362 311L363 312L362 311M20 312L21 313L20 312z"/>
  <path style="fill:#ffd160;stroke:none" d="M361 312L362 313L361 312z"/>
  <path style="fill:#feba0b;stroke:none" d="M21 313L22 314L21 313z"/>
  <path style="fill:#ffd160;stroke:none" d="M360 313L361 314L360 313M22 314L23 315L22 314z"/>
  <path style="fill:#feba0b;stroke:none" d="M356 316L357 317L356 316M26 317L27 318L26 317z"/>
  <path style="fill:#ffd160;stroke:none" d="M355 317L356 318L355 317z"/>
  <path style="fill:#feba0b;stroke:none" d="M352 319L353 320L352 319M30 320L31 321L30 320z"/>
  <path style="fill:#ffd160;stroke:none" d="M351 320L352 321L351 320M31 321L32 322L31 321z"/>
  <path style="fill:#feba0b;stroke:none" d="M347 323L348 324L347 323M35 324L36 325L35 324z"/>
  <path style="fill:#ffd160;stroke:none" d="M346 324L347 325L346 324z"/>
  <path style="fill:#feba0b;stroke:none" d="M343 326L344 327L343 326M39 327L40 328L39 327z"/>
  <path style="fill:#ffd160;stroke:none" d="M342 327L343 328L342 327M40 328L41 329L40 328z"/>
  <path style="fill:#feba0b;stroke:none" d="M338 330L339 331L338 330M44 331L45 332L44 331z"/>
  <path style="fill:#ffd160;stroke:none" d="M337 331L338 332L337 331z"/>
  <path style="fill:#feba0b;stroke:none" d="M334 333L335 334L334 333M48 334L49 335L48 334M333 334L334 335L333 334z"/>
  <path style="fill:#ffd160;stroke:none" d="M49 335L50 336L49 335z"/>
  <path style="fill:#feba0b;stroke:none" d="M329 337L330 338L329 337M53 338L54 339L53 338z"/>
  <path style="fill:#ffd160;stroke:none" d="M328 338L329 339L328 338z"/>
  <path style="fill:#feba0b;stroke:none" d="M57 341L58 342L57 341M324 341L325 342L324 341z"/>
  <path style="fill:#ffd160;stroke:none" d="M58 342L59 343L58 342z"/>
  <path style="fill:#feba0b;stroke:none" d="M320 344L321 345L320 344M62 345L63 346L62 345z"/>
  <path style="fill:#ffd160;stroke:none" d="M319 345L320 346L319 345z"/>
  <path style="fill:#feba0b;stroke:none" d="M66 348L67 349L66 348z"/>
  <path style="fill:#ffd160;stroke:none" d="M315 348L316 349L315 348M67 349L68 350L67 349z"/>
  <path style="fill:#feba0b;stroke:none" d="M311 351L312 352L311 351M71 352L72 353L71 352z"/>
  <path style="fill:#ffd160;stroke:none" d="M310 352L311 353L310 352z"/>
  <path style="fill:#feba0b;stroke:none" d="M75 355L76 356L75 355M306 355L307 356L306 355z"/>
  <path style="fill:#ffd160;stroke:none" d="M76 356L77 357L76 356z"/>
  <path style="fill:#feba0b;stroke:none" d="M302 358L303 359L302 358M80 359L81 360L80 359z"/>
  <path style="fill:#ffd160;stroke:none" d="M301 359L302 360L301 359M81 360L82 361L81 360z"/>
  <path style="fill:#feba0b;stroke:none" d="M84 362L85 363L84 362M297 362L298 363L297 362z"/>
  <path style="fill:#ffd160;stroke:none" d="M85 363L86 364L85 363z"/>
  <path style="fill:#feba0b;stroke:none" d="M293 365L294 366L293 365M89 366L90 367L89 366z"/>
  <path style="fill:#ffd160;stroke:none" d="M292 366L293 367L292 366z"/>
  <path style="fill:#feba0b;stroke:none" d="M93 369L94 370L93 369M288 369L289 370L288 369z"/>
  <path style="fill:#ffd160;stroke:none" d="M94 370L95 371L94 370z"/>
  <path style="fill:#feba0b;stroke:none" d="M284 372L285 373L284 372M98 373L99 374L98 373z"/>
  <path style="fill:#ffd160;stroke:none" d="M283 373L284 374L283 373M99 374L100 375L99 374z"/>
  <path style="fill:#feba0b;stroke:none" d="M102 376L103 377L102 376M279 376L280 377L279 376z"/>
  <path style="fill:#ffd160;stroke:none" d="M103 377L104 378L103 377M278 377L279 378L278 377z"/>
  <path style="fill:#feba0b;stroke:none" d="M275 379L276 380L275 379M107 380L108 381L107 380z"/>
  <path style="fill:#ffd160;stroke:none" d="M274 380L275 381L274 380M108 381L109 382L108 381z"/>
  <path style="fill:#feba0b;stroke:none" d="M111 383L112 384L111 383M270 383L271 384L270 383z"/>
  <path style="fill:#ffd160;stroke:none" d="M112 384L113 385L112 384M269 384L270 385L269 384z"/>
  <path style="fill:#feba0b;stroke:none" d="M266 386L267 387L266 386M116 387L117 388L116 387z"/>
  <path style="fill:#ffd160;stroke:none" d="M265 387L266 388L265 387M117 388L118 389L117 388z"/>
  <path style="fill:#feba0b;stroke:none" d="M120 390L121 391L120 390M261 390L262 391L261 390z"/>
  <path style="fill:#ffd160;stroke:none" d="M121 391L122 392L121 391z"/>
  <path style="fill:#feba0b;stroke:none" d="M257 393L258 394L257 393M125 394L126 395L125 394z"/>
  <path style="fill:#ffd160;stroke:none" d="M256 394L257 395L256 394M126 395L127 396L126 395z"/>
  <path style="fill:#feba0b;stroke:none" d="M129 397L130 398L129 397M252 397L253 398L252 397z"/>
  <path style="fill:#ffd160;stroke:none" d="M130 398L131 399L130 398z"/>
  <path style="fill:#feba0b;stroke:none" d="M248 400L249 401L248 400M134 401L135 402L134 401z"/>
  <path style="fill:#ffd160;stroke:none" d="M247 401L248 402L247 401M135 402L136 403L135 402z"/>
  <path style="fill:#feba0b;stroke:none" d="M138 404L139 405L138 404M243 404L244 405L243 404z"/>
  <path style="fill:#ffd160;stroke:none" d="M139 405L140 406L139 405M242 405L243 406L242 405z"/>
  <path style="fill:#feba0b;stroke:none" d="M142 407L143 408L142 407z"/>
  <path style="fill:#ffd160;stroke:none" d="M239 407L240 408L239 407z"/>
  <path style="fill:#feba0b;stroke:none" d="M145 409L146 410L145 409M236 409L237 410L236 409M234 410L235 411L234 410M150 412L151 413L150 412z"/>
  <path style="fill:#ffd160;stroke:none" d="M231 412L232 413L231 412M152 413L153 414L152 413M154 414L155 415L154 414z"/>
  <path style="fill:#feba0b;stroke:none" d="M224 415L225 416L224 415z"/>
  <path style="fill:#ffd160;stroke:none" d="M159 416L160 417L159 416z"/>
  <path style="fill:#feba0b;stroke:none" d="M162 417L163 418L162 417z"/>
  <path style="fill:#ffd160;stroke:none" d="M219 417L220 418L219 417M165 418L166 419L165 418z"/>
  <path style="fill:#feba0b;stroke:none" d="M215 418L216 419L215 418M169 419L170 420L169 419z"/>
  <path style="fill:#ffd160;stroke:none" d="M212 419L213 420L212 419z"/>
  <path style="fill:#feba0b;stroke:none" d="M174 420L175 421L174 420z"/>
  <path style="fill:#ffd160;stroke:none" d="M207 420L208 421L207 420z"/>
</svg>
